# xmcd CD database file
#
# Track frame offsets:
#	150
#	11290
#	23370
#	36377
#	47497
#	60967
#	80170
#	92287
#	108210
#	116837
#	134990
#	147050
#	160182
#	170915
#
# Disc length: 2440 seconds
#
# Revision: 4
# Processed by: cddbd v1.5.1PL0 Copyright (c) Steve Scherf et al.
# Submitted via: CDex 1.51
#
DISCID=af09860e
DTITLE=Wynette, Tammy - Stand By Your Man (Collection 1969-1975)
DYEAR=1993
DGENRE=Country
TTITLE0=(You Make Me Want To Be) A Mother
TTITLE1=Another Lonely Song
TTITLE2=Kids (Say The Darnest Things)
TTITLE3=Love's The Answer
TTITLE4=Woman To Woman
TTITLE5=Bedtime Story
TTITLE6=Stand By Your Man
TTITLE7=Good Lovin' (Makes It Right)
TTITLE8=Reach Out You Hand (And Touch Somebody)
TTITLE9=Please Come To Boston
TTITLE10=Till I Get It Right
TTITLE11=My Man (Understands)
TTITLE12=There Goes That Old Steel Guitar
TTITLE13=Help Me Make It Through The Night
EXTD=YEAR: 1993
EXTT0=
EXTT1=
EXTT2=
EXTT3=
EXTT4=
EXTT5=
EXTT6=
EXTT7=
EXTT8=
EXTT9=
EXTT10=
EXTT11=
EXTT12=
EXTT13=
PLAYORDER=
